<?xml version="1.0" encoding="UTF-8" standalone="no"?>
<!-- Creator: CorelDRAW -->

<svg
   xmlns:dc="http://purl.org/dc/elements/1.1/"
   xmlns:cc="http://creativecommons.org/ns#"
   xmlns:rdf="http://www.w3.org/1999/02/22-rdf-syntax-ns#"
   xmlns:svg="http://www.w3.org/2000/svg"
   xmlns="http://www.w3.org/2000/svg"
   xmlns:sodipodi="http://sodipodi.sourceforge.net/DTD/sodipodi-0.dtd"
   xmlns:inkscape="http://www.inkscape.org/namespaces/inkscape"
   xml:space="preserve"
   width="765"
   height="1060"
   style="fill-rule:evenodd"
   viewBox="0 0 8.5 11.777777"
   id="svg2"
   sodipodi:version="0.32"
   inkscape:version="0.47 r22583"
   sodipodi:docname="Populaton density of disricts of Serbia.svg"
   inkscape:output_extension="org.inkscape.output.svg.inkscape"
   version="1.1"><metadata
   id="metadata67"><rdf:RDF><cc:Work
       rdf:about=""><dc:format>image/svg+xml</dc:format><dc:type
         rdf:resource="http://purl.org/dc/dcmitype/StillImage" /></cc:Work></rdf:RDF></metadata><sodipodi:namedview
   inkscape:window-height="968"
   inkscape:window-width="1280"
   inkscape:pageshadow="2"
   inkscape:pageopacity="0.0"
   guidetolerance="10.0"
   gridtolerance="10.0"
   objecttolerance="10.0"
   borderopacity="1.0"
   bordercolor="#666666"
   pagecolor="#ffffff"
   id="base"
   showgrid="false"
   inkscape:zoom="0.68207547"
   inkscape:cx="382.5"
   inkscape:cy="548.91757"
   inkscape:window-x="-4"
   inkscape:window-y="-4"
   inkscape:current-layer="g4076"
   inkscape:window-maximized="1" />
 <defs
   id="defs4"><inkscape:perspective
   sodipodi:type="inkscape:persp3d"
   inkscape:vp_x="0 : 495 : 1"
   inkscape:vp_y="0 : 1000 : 0"
   inkscape:vp_z="765 : 495 : 1"
   inkscape:persp3d-origin="382.5 : 330 : 1"
   id="perspective69" />
  <style
   type="text/css"
   id="style6">
   
    .str0 {stroke:white;stroke-width:0.0138898}
    .fil3 {fill:#DA251D}
    .fil2 {fill:#0A0B0C}
    .fil1 {fill:#AAA9A9}
    .fil0 {fill:#DA251D}
   
  </style>
 
  <metadata
   id="CorelCorpID_0Corel-Layer" />
  
  
 <inkscape:perspective
   id="perspective3211"
   inkscape:persp3d-origin="0.5 : 0.33333333 : 1"
   inkscape:vp_z="1 : 0.5 : 1"
   inkscape:vp_y="0 : 1000 : 0"
   inkscape:vp_x="0 : 0.5 : 1"
   sodipodi:type="inkscape:persp3d" /><inkscape:perspective
   id="perspective2966"
   inkscape:persp3d-origin="0.5 : 0.33333333 : 1"
   inkscape:vp_z="1 : 0.5 : 1"
   inkscape:vp_y="0 : 1000 : 0"
   inkscape:vp_x="0 : 0.5 : 1"
   sodipodi:type="inkscape:persp3d" /></defs>
 
<g
   id="g4076"
   transform="translate(-0.02450267,-0.30203785)"><path
     id="rs-"
     class="fil0 str0"
     d="M 1.319598,1.502884 C 1.297716,1.500794 1.27861,1.429506 1.253031,1.440986 1.219744,1.456285 1.089688,1.449336 1.052712,1.430207 0.990149,1.398211 1.032062,1.3224081 0.956558,1.3262311 0.921113,1.3279711 0.861326,1.446554 0.886286,1.501144 0.908782,1.550179 0.8018451,1.541833 0.76671102,1.562695 c -0.0714961,0.042429 -0.194768,0.038256 -0.281063,0.070244 3.0709e-4,0.115106 0.0335945,0.461106 0.193846,0.561953 0.11679903,0.073728 -0.145457,0.051472 -0.103854,0.279937 0.0958465,0.1283151 0.180906,-0.013913 0.205866,0.031992 C 0.81786822,2.574286 0.906628,2.585754 0.902002,2.61114 0.882589,2.712687 0.76948602,2.596538 0.73312002,2.649045 0.72295072,2.663655 0.70969872,2.691128 0.71863972,2.687647 0.78797832,2.661568 0.9078597,2.799269 0.9956907,2.78119 c 0.055169,-0.01113 0.091535,0.060508 0.14824,0.040685 0.040681,-0.014256 0.165189,0.016693 0.226512,-0.036862 0.052087,-0.045555 0.039453,-0.17526 0.11126,-0.222209 0.040681,-0.026776 0.079815,0.048685 0.116185,0.020169 C 1.6333247,2.554808 1.6971237,2.50543 1.7257817,2.452225 1.7575257,2.393457 1.7553687,2.328772 1.7744787,2.298871 1.8247147,2.22167 1.7143807,2.107958 1.6684627,2.05684 1.6435017,2.029368 1.6283997,2.079789 1.5707657,2.0564896 c -0.041606,-0.016689 -0.139606,-0.140484 -0.188917,-0.249331 -0.030512,-0.067807 -0.030819,-0.130406 -0.025268,-0.161008 0.014173,-0.077197 0.024961,-0.137358 -0.036984,-0.143268 l 4e-7,-2e-7 z"
     style="fill:#d38d5f;fill-opacity:1;stroke:#ffffff;stroke-width:0.0138898" /><path
     id="rs-_0"
     class="fil0 str0"
     d="M 1.4471881,3.4537221 C 1.3211371,3.5104031 1.220668,3.2464661 1.217586,3.3709621 1.213886,3.5187491 1.07274,3.3546151 1.015728,3.3831311 0.970114,3.4057291 1.020658,3.5180561 0.98707,3.5288321 0.91557,3.5517891 0.874582,3.4891901 0.85609,3.4975371 0.899543,3.5942101 0.86472,3.6915801 0.873346,3.7802541 0.875806,3.8080731 0.7848973,3.908573 0.8194131,3.908573 1.131913,3.906143 0.907862,4.064018 0.8705701,4.0838331 0.8462231,4.0970491 0.8046211,4.0654041 0.76579012,4.0528881 0.70076252,4.0320221 0.64652212,4.0361951 0.73897512,4.1985891 0.83204992,4.1579041 0.9134081,4.1015731 1.0086361,4.07653 c 0.069654,-0.018079 0.043453,0.02365 0.10078,0.031295 0.057319,0.00765 0.178748,-0.034425 0.194465,0.00487 0.073035,-0.011827 0.124815,-0.044858 0.160252,-0.090067 0.016028,-0.020169 0.10448,0.121362 0.114031,0.097717 0.056705,-0.141878 0.079512,0.036169 0.190461,-0.015996 0.089677,-0.041728 0.286606,-0.024693 0.259488,0.028516 -0.019413,0.038248 -0.104476,0.138402 -0.121114,0.2197719 -0.012945,0.063638 0.033284,0.113366 0.062252,0.138752 0.021882,0.019126 0.055165,0.023646 0.095224,0.018083 0.0715,-0.010087 0.1020121,0.127276 0.215732,0.139094 0.035445,0.00348 0.079823,-0.014256 0.126665,-0.00869 0.10324,0.012512 -0.093996,0.078933 -0.1192679,0.118579 -0.030512,0.047988 0.025272,0.054595 0.048689,0.043122 0.022504,-0.011476 0.028047,0.014953 0.09585,-0.048339 0.01726,-0.016347 0.037905,-0.037209 0.058862,-0.059465 0.030819,-0.032689 0.086602,-0.034776 0.1158779,-0.067811 0.042839,-0.048685 0.056705,-0.1269289 0.064106,-0.137012 0.00955,-0.013559 -0.096772,-0.06885 -0.085681,-0.083803 0.020653,-0.027122 0.081669,-0.018433 0.102319,-0.046949 0.033902,-0.046244 -0.015409,-0.061898 0.012327,-0.1109291 0.020339,-0.036161 0.044996,-0.075114 0.069957,-0.1119759 0.026815,-0.040335 0.065953,-0.023295 0.090299,-0.056681 0.017878,-0.024689 0.071807,-0.014598 0.085988,-0.038941 0.016024,-0.027823 -0.00709,-0.091114 -0.00339,-0.097024 0.012327,-0.019126 0.1140241,-0.036862 0.131594,-0.082768 0.015409,-0.040677 -0.049929,-0.1112761 -0.049929,-0.140138 0,-0.039295 -0.04715,-0.017039 -0.055165,-0.056331 -0.00956,-0.045213 -0.025886,-0.088327 -0.048075,-0.121016 -0.03298,-0.048685 -0.120811,-0.077551 -0.188307,-0.088677 -0.033279,-0.00556 -0.03513,-0.027815 -0.066256,-0.026772 -0.025272,6.93e-4 -0.03976,0.041721 -0.06287,0.043465 -0.032358,0.00243 -0.061638,0.00452 -0.08352,0.00313 -0.015409,-0.00104 0.00771,-0.018429 0.010484,-0.043815 0.00339,-0.033039 -0.010484,-0.076508 -0.01665,-0.069201 -0.074886,0.086933 -0.062559,0.139787 -0.120189,0.157528 -0.079512,0.024342 -0.085055,-0.013909 -0.174126,-0.015653 -0.102319,-0.00209 -0.285067,0.01774 -0.370126,0.01774 -0.110642,0 -0.158409,-0.052508 -0.223437,-0.063984 -0.037906,-0.00661 -0.038827,0.012512 -0.075811,0.00243 -0.030205,-0.00834 -0.04839,0.066071 -0.066567,0.046949 -0.061945,-0.065031 -0.032976,-0.053205 -0.036673,-0.051815 l 3e-7,-1.6e-6 z"
     style="fill:#c87137;fill-opacity:1;stroke:#ffffff;stroke-width:0.0138898" /><path
     id="rs-_1"
     class="fil0 str0"
     d="m 1.951988,1.0122149 c -0.050236,-0.00243 -0.207717,-0.030252 -0.28661,0.044169 -0.050854,0.047984 0.00339,0.066071 -0.049925,0.108843 -0.068724,0.054937 -0.125744,0.112669 -0.154094,0.147094 -0.066874,0.082067 -0.097693,-0.033732 -0.151933,0.015303 -0.045921,0.041378 -0.030819,0.1018819 -0.056398,0.113362 -0.011406,0.00522 0.032972,0.041728 0.066567,0.061898 0.019721,0.012169 0.02835,0.00174 0.041602,0.024689 0.029898,0.051465 0.00894,0.1543981 -0.00709,0.146752 -0.0265,-0.013213 0.014795,0.125181 0.085988,0.2368071 C 1.495256,1.997723 1.554426,2.0526669 1.57076,2.05649 1.731327,2.094396 1.620071,2.022762 1.651504,2.04849 1.677083,2.069006 1.755673,2.1476 1.779709,2.21297 1.794197,2.251919 1.750741,2.293301 1.774779,2.298868 1.814531,2.307908 1.955373,2.4167541 2.010232,2.368069 2.02687,2.353112 2.022252,2.294695 2.037661,2.249482 2.049374,2.214014 2.084503,2.191415 2.088204,2.161155 2.093134,2.119427 2.068172,2.100301 2.082654,2.093348 2.126418,2.071443 2.213941,2.063096 2.243221,2.009887 2.255859,1.986592 2.149536,1.922603 2.153847,1.877052 2.155387,1.858269 2.1785,1.830454 2.171725,1.808198 2.164945,1.785946 2.128268,1.767163 2.131044,1.745954 2.135664,1.711178 2.16217,1.707702 2.169564,1.673277 2.182198,1.613116 2.144292,1.5846 2.155391,1.528261 2.173875,1.434375 2.239832,1.323096 2.238596,1.318226 2.228431,1.282407 2.304856,1.061246 2.269108,1.084895 2.233356,1.108537 2.200384,1.126623 2.159088,1.124537 2.045364,1.118967 2.050915,0.999348 1.951986,1.01221 l -1.2e-6,2.1e-6 z"
     style="fill:#a05a2c;fill-opacity:1;stroke:#ffffff;stroke-width:0.0138898" /><path
     id="rs-_2"
     class="fil0 str0"
     d="m 1.438558,2.6170621 c -0.010165,0.026429 -0.037598,0.156484 -0.097075,0.185693 -0.032665,0.015996 -0.179984,0.01739 -0.219429,0.022606 -0.028658,0.00382 -0.015716,-0.021563 -0.098311,-0.043122 -0.04222,-0.00765 -0.033902,-0.00139 -0.071807,-0.00278 -0.033279,-0.00104 -0.20432698,-0.119622 -0.22158698,-0.094587 -0.0231102,0.034079 0.0751969,0.225689 -0.044378,0.231248 -0.035748,0.01113 0.0545512,0.111976 0.19323198,0.11963 0.048075,0.00243 0.019724,0.057724 0.049311,0.100496 0.029276,0.042772 0.118343,0.075457 0.147311,0.088669 0.299866,0.139106 0.276134,0.057732 0.342398,0.095287 0.108783,0.061898 0.07828,0.114055 0.028968,0.133531 -0.025272,0.011126 0.07365,0.053205 0.053008,0.053205 -0.053319,0 0.00709,-0.022252 0.050232,-0.048339 0.014173,-0.00869 0.036055,0.00244 0.06472,-0.00209 0.041295,-0.0066 0.105087,0.059819 0.261028,0.065028 0.089685,0.00313 0.22313,-0.022256 0.323906,-0.020169 0.073346,0.00139 0.119268,0.035126 0.173504,0.022606 0.093996,-0.021563 0.096157,-0.10502 0.125437,-0.151268 0.032358,-0.051118 -0.00308,-0.00557 0.031433,0.057031 0.00462,0.00869 -0.032976,0.030945 -0.010173,0.043815 0.022811,0.012516 0.074583,-6.968e-4 0.086909,-0.00591 0.012327,-0.00522 0.03298,-0.037563 0.05948,-0.040685 0.018185,-0.00209 0.039142,0.020512 0.066256,0.026772 0.018492,0.00452 0.045921,-3.425e-4 0.078279,0.015992 0.067189,0.034433 0.141461,0.10711 0.115571,0.062949 -0.00585,-0.010433 0.0037,-0.042429 0.058555,-0.084158 0.013567,-0.010087 0.016646,-0.052508 0.023118,-0.070248 0.00617,-0.017035 -0.062874,-0.088669 -0.060716,-0.109882 0.00185,-0.019472 -0.09461,-0.098067 -0.092142,-0.118925 0.00339,-0.030602 0.067488,-0.043126 0.066256,-0.076508 -3.071e-4,-0.015299 -0.1140309,-0.066421 -0.1146459,-0.082764 -3.072e-4,-0.012516 -0.00185,-0.025728 -0.00247,-0.038602 -9.213e-4,-0.015299 0.035449,-0.043114 0.034213,-0.058768 -6.181e-4,-0.00938 -0.00215,-0.020165 -0.00339,-0.029559 -0.00215,-0.018772 -0.085059,0.012173 -0.087528,-0.00591 -0.00277,-0.020516 -0.016024,-0.024689 -0.018799,-0.045205 -0.00616,-0.042079 0.028047,-0.036862 0.01911,-0.077898 -0.00925,-0.043114 -0.098618,-0.060504 -0.108169,-0.100496 -0.00278,-0.012866 -0.045614,0.098409 -0.04839,0.085197 -0.00215,-0.010429 -0.025579,0.014256 -0.027736,0.00383 -0.00278,-0.015303 -0.00678,-0.031646 -0.00956,-0.047299 -0.00215,-0.01252 0.029898,-0.089721 0.028047,-0.102583 -0.00185,-0.010779 -0.022189,-0.010433 -0.023728,-0.021905 -0.00339,-0.021913 0.131902,-0.061205 0.128512,-0.082768 -0.00216,-0.01252 -0.017567,-0.023295 -0.019728,-0.036161 -0.00277,-0.016 -0.081976,0.041378 -0.084748,0.025035 -0.00308,-0.017732 -0.011709,-0.026079 -0.014791,-0.043815 -0.00124,-0.00835 0.057937,-0.030602 0.056709,-0.039295 -0.00185,-0.014256 -0.00494,-0.029209 -0.00678,-0.043465 -0.00185,-0.01287 -0.089685,0.036854 -0.091228,0.023992 -0.00154,-0.012524 -0.004,-0.026779 -0.00554,-0.039646 -0.00154,-0.012862 0.119882,-0.042772 0.118339,-0.055287 -0.0037,-0.030602 -0.00893,-0.060512 -0.012638,-0.087634 -0.00123,-0.00835 0.061642,-0.033382 0.060409,-0.041728 -0.017874,-0.106756 -0.185839,-0.046252 -0.201248,-0.072681 -0.022496,-0.038248 -0.126043,-0.047984 -0.192303,-0.046941 -0.00956,0 -0.050543,-0.010784 -0.050543,-7.007e-4 -3.071e-4,0.030602 -0.133445,0.077902 -0.160567,0.083461 -0.012634,0.00278 0.012945,0.039992 0.00555,0.067807 -0.013252,0.049386 -0.042535,0.054945 -0.052394,0.094587 -0.00647,0.02678 -0.00956,0.084153 -0.032972,0.117886 -0.00771,0.01113 -0.046847,0.014957 -0.103244,-0.012862 -0.050232,-0.024693 -0.094307,-0.052508 -0.124508,-0.061898 -0.012634,-0.00383 -0.011402,0.035118 -0.021264,0.07198 -0.011713,0.044858 -0.035441,0.091457 -0.040681,0.101539 -0.01726,0.033386 -0.030819,0.041732 -0.073657,0.07685 -0.016949,0.01426 -0.029276,0.030602 -0.05085,0.038949 -0.021882,0.0087 -0.060709,-0.030252 -0.085055,-0.030945 -0.035441,-0.00139 -0.055783,0.033728 -0.065031,0.059811 l -1.7e-6,10e-7 z"
     style="fill:#784421;fill-opacity:1;stroke:#ffffff;stroke-width:0.0138898" /><polygon
     transform="translate(-0.13909197,0.9402621)"
     class="fil0 str0"
     points="3.67065,1.21661 3.6921,1.12362 3.72429,1.03779 3.72429,0.948374 3.68495,0.858961 3.60985,0.837504 3.59196,0.730209 3.54547,0.773126 3.48467,0.751669 3.45248,0.662256 3.40598,0.601457 3.30227,0.605031 3.22716,0.529925 3.1914,0.429783 3.15563,0.34037 3.09126,0.28315 3.09126,0.222346 3.01615,0.186583 2.92316,0.111476 2.86236,0.161547 2.79441,0.0757126 2.75149,0.14724 2.68354,0.140091 2.65135,0.0685591 2.54763,0.0649843 2.46179,0.0935945 2.4082,0.144638 2.42018,0.156469 2.40904,0.210543 2.3933,0.277945 2.37698,0.374055 2.33626,0.465496 2.29577,0.581795 2.2925,0.612846 2.31099,0.700465 2.30533,0.743972 2.27367,0.791654 2.27138,0.815248 2.31082,0.867941 2.29294,0.936795 2.29949,0.961854 2.3857,1.06287 2.43286,1.07033 2.54999,1.0777 2.61301,1.10412 2.63333,1.12264 2.74346,1.12473 2.80081,1.14128 2.8142,1.15857 2.82641,1.18995 2.82641,1.18995 2.88024,1.19515 2.91958,1.14866 2.84448,1.10574 2.86951,1.04494 2.96965,1.04852 3.08768,1.02706 3.2057,1.00917 3.23074,1.0807 3.28081,1.18442 3.33803,1.2488 3.26293,1.3096 3.2057,1.28814 3.22358,1.35967 3.16994,1.41689 3.18782,1.46696 3.30227,1.47054 3.40598,1.43478 3.51328,1.44551 3.4954,1.39901 3.4954,1.29887 3.53474,1.26311 3.57766,1.2023 3.63846,1.2488 "
     id="polygon14"
     style="fill:#deaa87;fill-opacity:1;stroke:#ffffff;stroke-width:0.0138898" /><polygon
     transform="translate(-0.13909197,0.9402621)"
     class="fil0 str0"
     points="4.17579,2.20676 4.03181,2.2993 4.07709,2.33838 4.01949,2.39391 3.9146,2.44944 3.84467,2.54815 3.76035,2.45767 3.7295,2.41447 3.61844,2.37951 3.58554,2.38568 3.58554,2.45561 3.4642,2.43093 3.39839,2.55021 3.33052,2.69829 3.28939,2.75176 3.24825,2.72708 3.16116,2.76654 3.12373,2.74515 3.09004,2.66035 3.06587,2.59241 3.08498,2.5446 3.12443,2.50825 3.14754,2.438 3.0953,2.35023 3.08683,2.32812 3.04029,2.26893 2.99469,2.20919 3.04082,2.16394 3.06094,2.13269 3.00343,2.09152 2.95806,2.06306 2.94517,2.03061 2.94383,2.01132 2.97804,1.95255 2.97465,1.92299 2.90102,1.92299 2.86832,1.87188 2.88743,1.79398 2.84299,1.74831 2.80019,1.72102 2.77926,1.69348 2.73087,1.77868 2.70314,1.78251 2.69358,1.73521 2.72163,1.63263 2.6979,1.61072 2.82641,1.52796 2.80669,1.4918 2.72194,1.51683 2.70715,1.47302 2.76385,1.43372 2.75707,1.39026 2.68038,1.41415 2.66306,1.39443 2.66806,1.36723 2.77864,1.31931 2.766,1.23168 2.82641,1.18995 2.88024,1.19515 2.91958,1.14866 2.84448,1.10574 2.86951,1.04494 2.96965,1.04852 3.2057,1.00917 3.28081,1.18442 3.33803,1.2488 3.26293,1.3096 3.2057,1.28814 3.22358,1.35967 3.16994,1.41689 3.18782,1.46696 3.30227,1.47054 3.40598,1.43478 3.51328,1.44551 3.4954,1.39901 3.4954,1.29887 3.53474,1.26311 3.57992,1.20404 3.63846,1.2488 3.67065,1.21661 3.6921,1.12362 3.72429,1.03779 3.72429,1.0098 3.72429,1.0098 3.79531,1.06738 3.80148,1.12908 3.8673,1.13525 3.93724,1.1044 3.95161,1.03242 4.00921,1.06944 3.97425,1.19078 3.96189,1.32652 3.98248,1.3841 3.92283,1.47665 3.93311,1.49928 4.0339,1.60416 4.04622,1.6638 3.91049,1.7399 3.92488,1.78309 4.0339,1.79131 4.09559,1.84067 4.08941,1.89826 4.19224,1.96819 4.21898,2.05251 4.32181,2.1286 4.33209,2.16974 4.2478,2.19236 "
     id="polygon16"
     style="fill:#e9c6af;fill-opacity:1;stroke:#ffffff;stroke-width:0.0138898" /><polygon
     transform="translate(-0.13909197,0.9402621)"
     class="fil0 str0"
     points="4.61594,3.55269 4.58469,3.61522 4.52217,3.56441 4.45181,3.64258 4.30331,3.63867 4.17433,3.75982 4.00626,3.80281 3.8773,3.77546 3.72879,3.59568 3.67407,3.5605 3.67407,3.44326 3.58809,3.34165 3.60372,3.29084 3.65062,3.30256 3.65062,3.15405 3.50993,3.07198 3.42394,2.97037 3.3067,2.8453 3.28939,2.75176 3.4642,2.43093 3.58554,2.45561 3.58554,2.38568 3.61844,2.37951 3.7295,2.41447 3.84467,2.54815 3.9146,2.44944 4.01949,2.39391 4.07709,2.33838 4.03181,2.2993 4.17579,2.20676 4.33209,2.16974 4.33209,2.16974 4.42835,2.16919 4.4948,2.24344 4.60031,2.16528 4.65894,2.18873 4.67457,2.32942 4.80354,2.38805 5.03803,2.4154 5.22953,2.54828 5.22953,2.61081 5.12012,2.68116 5.12012,2.79059 5.06929,2.88048 4.92079,2.8922 5.06929,3.04462 5.22953,3.09934 5.28425,3.1775 5.26862,3.23222 5.18264,3.25957 5.0224,3.26739 4.93642,3.29866 4.93642,3.38854 4.8387,3.46671 4.6863,3.48625 "
     id="polygon18"
     style="fill:#deaa87;fill-opacity:1;stroke:#ffffff;stroke-width:0.0138898" /><polygon
     transform="translate(-0.13909197,0.9402621)"
     class="fil0 str0"
     points="1.70069,4.44102 1.72906,4.33319 1.67798,4.29913 1.81419,4.25941 1.89365,4.32181 2.00715,4.28209 2.12066,4.32752 2.25687,4.40697 2.3193,4.40697 2.35902,4.20831 2.32497,4.06075 2.4101,3.9813 2.47253,4.02102 2.56333,3.94724 2.52802,3.84735 2.42847,3.86081 2.4267,3.8182 2.57423,3.70923 2.54596,3.69962 2.4193,3.70831 2.35167,3.68298 2.24042,3.57737 2.15376,3.57016 2.05803,3.48974 2.04609,3.41238 2.09813,3.29812 2.1672,3.19261 2.1148,3.14787 2.0223,3.13159 1.90772,3.16409 1.83758,3.16804 1.78318,3.132 1.74908,3.12831 1.71726,3.18009 1.66117,3.13077 1.60322,3.08237 1.55947,3.12523 1.44297,3.17244 1.44297,3.17244 1.48502,3.23784 1.35449,3.45918 1.39422,3.57836 1.21828,3.88483 1.03667,4.16858 1.0764,4.34453 0.985591,4.45803 1.0991,4.70776 1.16153,4.67937 1.20126,4.74181 1.37152,4.71343 1.43394,4.92909 1.58718,5.08799 1.60988,5.01988 1.65528,5.16177 1.85392,5.03126 1.90177,5.04059 1.905,4.97449 1.83122,4.91776 1.83122,4.8326 1.58718,4.73614 1.71204,4.54886 1.63258,4.45236 "
     id="polygon20"
     style="fill:#a05a2c;fill-opacity:1;stroke:#ffffff;stroke-width:0.0138898" /><polygon
     transform="translate(-0.13909197,0.9402621)"
     class="fil0 str0"
     points="3.28939,2.75176 3.24825,2.72708 3.16116,2.76654 3.2135,2.91963 3.0819,3.00239 3.08529,3.09942 2.9993,3.13836 2.909,3.19504 2.83905,3.30702 2.82672,3.41794 2.7244,3.46489 2.82166,3.54824 2.74598,3.68571 2.6301,3.75352 2.52802,3.84735 2.56333,3.94724 2.56574,4.06051 2.68043,4.13248 2.80091,4.05728 2.83778,4.16327 2.94436,4.12374 3.01474,4.28953 2.93569,4.41744 2.94017,4.58335 3.0693,4.76862 3.27407,4.66024 3.39024,4.33028 3.39024,4.33028 3.52152,4.41071 3.539,4.46988 3.66905,4.45346 3.72385,4.54717 3.93815,4.60563 3.96213,4.34024 4.06815,4.28193 3.85279,4.06406 3.88291,3.99496 4.00642,3.98634 3.9561,3.89906 4.00626,3.80281 3.8773,3.77546 3.72879,3.59568 3.67407,3.5605 3.67407,3.44326 3.58809,3.34165 3.60372,3.29084 3.65062,3.30256 3.65062,3.15405 3.50993,3.07198 3.42394,2.97037 3.3067,2.8453 "
     id="polygon22"
     style="fill:#28170b;fill-opacity:1;stroke:#ffffff;stroke-width:0.0138898" /><polygon
     transform="translate(-0.13909197,0.9402621)"
     class="fil1 str0"
     points="2.94436,4.12374 3.01474,4.28953 2.93569,4.41744 2.94017,4.58335 3.0693,4.76862 3.27407,4.66024 3.33535,4.80067 3.05967,5.05319 2.88585,5.05823 2.80305,5.18894 2.6729,5.09913 2.53657,5.13921 2.38166,5.02551 2.24333,5.04512 2.22537,5.27094 2.14624,5.07555 1.905,4.97449 1.905,4.97449 1.905,4.97449 1.83122,4.91776 1.83122,4.8326 1.58718,4.73614 1.71204,4.54886 1.63258,4.45236 1.70069,4.44102 1.72906,4.33319 1.67798,4.29913 1.81419,4.25941 1.89365,4.32181 2.00715,4.28209 2.12066,4.32752 2.25687,4.40697 2.3193,4.40697 2.35902,4.20831 2.32497,4.06075 2.4101,3.9813 2.47253,4.02102 2.56333,3.94724 2.68043,4.13248 2.80091,4.05728 2.83778,4.16327 "
     id="polygon24"
     style="fill:#deaa87;fill-opacity:1;stroke:#ffffff;stroke-width:0.0138898" /><polygon
     transform="translate(-0.13909197,0.9402621)"
     class="fil1 str0"
     points="4.17433,3.75982 4.30331,3.63867 4.37756,3.64062 4.37756,3.64062 4.41996,3.85985 4.55543,3.9878 4.57051,4.15339 4.61567,4.31146 4.56295,4.40929 4.5165,4.5078 4.61516,4.49996 4.63701,4.55886 4.53122,4.63972 4.57547,4.73138 4.58811,4.86409 4.53756,4.89886 4.31634,4.77878 4.28787,4.72504 4.12039,4.72823 3.93815,4.60563 3.96213,4.34024 4.06815,4.28193 3.85279,4.06406 3.88291,3.99496 4.00642,3.98634 3.9561,3.89906 4.00626,3.80281 "
     id="polygon26"
     style="fill:#502d16;fill-opacity:1;stroke:#ffffff;stroke-width:0.0138898" /><polygon
     transform="translate(-0.13909197,0.9402621)"
     class="fil0 str0"
     points="5.63224,5.12945 5.50209,5.13362 5.4937,5.08744 5.29642,5.06228 5.29642,4.99929 5.11169,4.87339 4.9522,4.89016 4.9522,4.83138 4.91024,4.78102 4.88925,4.70547 4.83886,4.66768 4.79689,4.75583 4.72551,4.74323 4.71291,4.69709 4.67516,4.65508 4.53122,4.63972 4.63701,4.55886 4.61516,4.49996 4.5165,4.5078 4.61567,4.31146 4.57051,4.15339 4.55543,3.9878 4.41996,3.85985 4.37756,3.64062 4.45181,3.64258 4.52217,3.56441 4.58469,3.61522 4.61594,3.55269 4.6863,3.48625 4.8387,3.46671 4.93642,3.38854 4.93642,3.38854 4.98579,3.42936 5.00677,3.51332 5.33839,3.53011 5.38457,3.65604 5.38035,3.75678 5.45173,3.81135 5.68256,3.79115 6.05618,3.84913 6.11075,3.9415 5.97224,4.09681 5.94705,4.2815 5.77496,4.37803 5.7078,4.49559 5.77075,4.60472 5.87988,4.63409 5.92185,4.84819 6.01,4.78102 6.04358,4.91957 5.99744,5.00772 6.03102,5.08327 5.96386,5.12524 5.90929,5.12945 5.75815,5.18819 "
     id="polygon28"
     style="fill:#e9c6af;fill-opacity:1;stroke:#ffffff;stroke-width:0.0138898" /><polygon
     transform="translate(-0.13909197,0.9402621)"
     class="fil1 str0"
     points="5.71811,5.28685 5.72154,5.35307 5.81811,5.37846 5.91181,5.35803 5.94043,5.43343 6.09445,5.49354 6.15441,5.45787 6.19256,5.59469 6.30803,5.63972 6.35382,5.57374 6.37398,5.52622 6.44319,5.3952 6.50008,5.28528 6.49909,5.10232 6.4302,5.05638 6.51157,4.94244 6.67969,5.02264 6.79283,4.98665 6.95622,5.13606 6.88866,5.19654 6.91059,5.27417 7.02496,5.2728 7.17461,5.20276 7.17976,4.97472 7.21713,4.88303 7.30382,4.74492 7.23902,4.68122 7.06882,4.66524 6.97236,4.53567 6.95583,4.41102 6.88354,4.31697 6.86728,4.2224 7.02528,4.20358 7.04705,4.09579 7.07925,4.03669 7.15819,4.02236 7.29709,4.11563 7.41988,4.05398 7.25744,3.88176 7.0737,3.83699 7.0737,3.83699 6.90839,3.64881 6.81961,3.64213 6.73142,3.75433 6.62492,3.74668 6.51102,3.92853 6.41063,4.19299 6.29795,4.2539 6.14685,4.05429 6.11075,3.9415 5.97224,4.09681 5.94705,4.2815 5.77496,4.37803 5.7078,4.49559 5.77075,4.60472 5.87988,4.63409 5.92185,4.84819 6.01,4.78102 6.04358,4.91957 5.99744,5.00772 6.03102,5.08327 5.96386,5.12524 5.90929,5.12945 5.75815,5.18819 "
     id="polygon30"
     style="fill:#f4e3d7;fill-opacity:1;stroke:#ffffff;stroke-width:0.0138898" /><polygon
     transform="translate(-0.13909197,0.9402621)"
     class="fil2 str0"
     points="4.83886,4.66768 4.79689,4.75583 4.72551,4.74323 4.71291,4.69709 4.67516,4.65508 4.53122,4.63972 4.57547,4.73138 4.58811,4.86409 4.58811,4.86409 4.53756,4.89886 4.55118,5.04874 4.6263,5.05063 4.64539,5.12232 4.45484,5.20587 4.52909,5.28512 4.50925,5.37441 4.4172,5.39945 4.42272,5.50441 4.3452,5.62134 4.36575,5.71705 4.19433,5.83957 4.20709,5.93693 4.25122,6.02736 4.57945,6.07961 4.58673,6.00571 4.64681,6.00795 4.74425,5.93394 4.79992,5.79087 4.79992,5.79087 4.83272,5.93693 4.95689,5.87886 4.98638,5.97063 5.04933,6.0411 5.18421,5.9739 5.30996,5.87236 5.49472,5.83094 5.54764,5.75047 5.5272,5.61319 5.60587,5.61146 5.72154,5.35307 5.71811,5.28685 5.75815,5.18819 5.63224,5.12945 5.50209,5.13362 5.4937,5.08744 5.29642,5.06228 5.29642,4.99929 5.11169,4.87339 4.9522,4.89016 4.9522,4.83138 4.91024,4.78102 4.88925,4.70547 "
     id="polygon32"
     style="fill:#d38d5f;fill-opacity:1;stroke:#ffffff;stroke-width:0.0138898" /><polygon
     transform="translate(-0.13909197,0.9402621)"
     class="fil0 str0"
     points="4.50925,5.37441 4.4172,5.39945 4.42272,5.50441 4.3452,5.62134 4.36575,5.71705 4.19433,5.83957 4.11661,5.75594 3.9102,5.77331 3.9461,5.83949 3.90119,5.89787 3.82901,5.89657 3.69331,5.71122 3.51727,5.47406 3.51727,5.47406 3.64494,5.34992 3.68832,5.29205 3.52161,5.1398 3.51383,5.09346 3.46903,4.98496 3.40324,4.97142 3.36915,4.91181 3.33535,4.80067 3.27407,4.66024 3.39024,4.33028 3.66905,4.45346 3.66905,4.45346 3.72385,4.54717 3.93815,4.60563 4.12039,4.72823 4.28787,4.72504 4.31634,4.77878 4.53756,4.89886 4.55118,5.04874 4.6263,5.05063 4.64539,5.12232 4.45484,5.20587 4.52909,5.28512 "
     id="polygon34"
     style="fill:#a05a2c;fill-opacity:1;stroke:#ffffff;stroke-width:0.0138898" /><polygon
     transform="translate(-0.13909197,0.9402621)"
     class="fil1 str0"
     points="3.30931,7.01587 3.23802,7.06276 3.17602,7.1798 3.00797,7.23433 3.00797,7.23433 2.99486,7.15929 3.05478,7.09768 3.03414,7.0452 2.77927,7.09185 2.72872,7.03862 2.75822,6.9772 2.56464,6.62409 2.40715,6.51425 2.44015,6.40717 2.5326,6.44413 2.64155,6.33382 2.72009,6.31433 2.74643,6.22382 2.85783,6.26902 2.89564,6.21957 2.90413,6.06909 2.817,5.99004 2.82154,5.85764 2.74667,5.71374 2.77133,5.49768 2.68161,5.41465 2.70694,5.30106 2.71371,5.12728 2.80305,5.18894 2.88585,5.05823 3.05967,5.05319 3.33535,4.80067 3.36915,4.91181 3.40324,4.97142 3.46903,4.98496 3.46903,4.98496 3.51383,5.09346 3.52161,5.1398 3.68832,5.29205 3.51727,5.47406 3.6765,5.68858 3.69331,5.71122 3.61493,5.74252 3.56321,5.87098 3.46408,5.92504 3.40806,6.01748 3.31531,6.03181 3.34072,6.14831 3.36211,6.20173 3.32211,6.24508 3.26441,6.21307 3.21603,6.26276 3.24605,6.3835 3.232,6.42669 3.13672,6.51051 3.25206,6.59587 3.30863,6.72697 3.3033,6.83252 3.31688,6.91063 "
     id="polygon36"
     style="fill:#deaa87;fill-opacity:1;stroke:#ffffff;stroke-width:0.0138898" /><polygon
     transform="translate(-0.13909197,0.9402621)"
     class="fil0 str0"
     points="1.15878,6.55535 1.15571,6.64531 1.55467,6.91799 1.60576,7.04138 1.70151,7.0661 1.6994,7.17677 1.75236,7.23925 1.80717,7.25394 1.87198,7.30803 1.94136,7.40339 2.04819,7.42406 2.14303,7.4328 2.13998,7.52201 2.23596,7.5922 2.29661,7.56732 2.36127,7.62575 2.47836,7.54933 2.50138,7.66146 2.52389,7.75504 2.60345,7.75157 2.64294,7.8237 2.73674,7.60543 2.83889,7.58535 2.87415,7.47799 3.06582,7.4272 2.94678,7.2939 3.00797,7.23433 2.99486,7.15929 3.05478,7.09768 3.03414,7.0452 2.77927,7.09185 2.72872,7.03862 2.75822,6.9772 2.56464,6.62409 2.40715,6.51425 2.44015,6.40717 2.5326,6.44413 2.64155,6.33382 2.72009,6.31433 2.74643,6.22382 2.85783,6.26902 2.89564,6.21957 2.90413,6.06909 2.817,5.99004 2.82154,5.85764 2.74667,5.71374 2.77133,5.49768 2.68161,5.41465 2.70694,5.30106 2.71371,5.12728 2.6729,5.09913 2.53657,5.13921 2.38166,5.02551 2.24333,5.04512 2.22537,5.27094 2.14624,5.07555 1.905,4.97449 1.905,4.97449 1.905,4.97449 1.90177,5.04059 1.85392,5.03126 1.65528,5.16177 1.80014,5.24567 1.84483,5.21724 1.8849,5.29 1.87323,5.35839 1.66597,5.50453 1.52986,5.50484 1.22085,5.35102 1.26228,5.51555 1.69215,6.10957 1.71623,6.22909 1.65051,6.30921 1.67822,6.39492 1.52804,6.41953 1.48996,6.5028 1.4147,6.35433 1.33381,6.38768 1.2422,6.37055 1.21285,6.40004 1.19839,6.52622 "
     id="polygon38"
     style="fill:#e9c6af;fill-opacity:1;stroke:#ffffff;stroke-width:0.0138898" /><polygon
     transform="translate(-0.13909197,0.9402621)"
     class="fil2 str0"
     points="3.30931,7.01587 3.23802,7.06276 3.17602,7.1798 3.00797,7.23433 3.00797,7.23433 2.94678,7.2939 3.06582,7.4272 2.87415,7.47799 2.83889,7.58535 2.73674,7.60543 2.64294,7.8237 2.72876,7.93209 2.80009,7.86102 2.82168,7.91713 3.12767,8.07067 3.15529,8.22169 3.318,8.26488 3.48898,8.14563 3.39624,8.00283 3.44181,7.93969 3.51663,7.93709 3.56632,7.81587 3.73162,7.77043 3.70693,7.67744 3.7763,7.64709 3.76627,7.5898 3.64581,7.4474 3.63056,7.34555 3.76489,7.34917 3.84652,7.2502 3.93087,7.24657 3.99929,7.1728 4.04539,7.04791 4.03528,6.89252 3.94807,6.84453 3.93319,6.76268 3.96598,6.71354 3.92345,6.57772 4.01717,6.56693 4.12469,6.59327 4.20606,6.57579 4.17713,6.35492 4.24299,6.34268 4.1363,6.2135 4.17063,6.14846 4.2026,6.06236 4.25122,6.02736 4.20709,5.93693 4.19433,5.83957 4.11661,5.75594 4.11661,5.75594 3.9102,5.77331 3.9461,5.83949 3.90119,5.89787 3.82901,5.89657 3.70535,5.72768 3.69331,5.71122 3.61493,5.74252 3.56321,5.87098 3.46408,5.92504 3.40806,6.01748 3.31531,6.03181 3.34072,6.14831 3.36211,6.20173 3.32211,6.24508 3.26441,6.21307 3.21603,6.26276 3.24605,6.3835 3.232,6.42669 3.13672,6.51051 3.25206,6.59587 3.30863,6.72697 3.3033,6.83252 3.31688,6.91063 "
     id="polygon40"
     style="fill:#deaa87;fill-opacity:1;stroke:#ffffff;stroke-width:0.0138898" /><polygon
     transform="translate(-0.13909197,0.9402621)"
     class="fil1 str0"
     points="5.81811,5.37846 5.91181,5.35803 5.94043,5.43343 6.09445,5.49354 6.15441,5.45787 6.19256,5.59469 6.30803,5.63972 6.35382,5.57374 6.37398,5.52622 6.44319,5.3952 6.50008,5.28528 6.49909,5.10232 6.4302,5.05638 6.51157,4.94244 6.67969,5.02264 6.79283,4.98665 6.95622,5.13606 6.88866,5.19654 6.91059,5.27417 7.02496,5.2728 7.00567,5.32882 6.83689,5.34531 6.80622,5.39228 6.80969,5.5113 6.7726,5.66445 6.71587,5.85768 6.79335,5.99535 6.81717,6.13539 6.93744,6.25268 6.99673,6.61642 7.09925,6.70984 7.20343,6.78094 7.27331,6.77039 7.2822,6.85311 7.14606,6.98409 7.07484,7.01949 6.98244,6.92276 6.88496,6.98047 6.88496,6.98047 6.72504,6.90012 6.69559,6.79642 6.65055,6.70906 6.57642,6.73917 6.47866,6.65142 6.47866,6.65142 6.36957,6.69669 6.27417,6.60402 6.1789,6.60539 6.15236,6.51323 6.07445,6.40433 6.06728,6.54039 5.93921,6.58055 5.87335,6.40642 5.70807,6.40937 5.66618,6.34839 5.55528,6.17772 5.56461,5.95807 5.49472,5.83094 5.54764,5.75047 5.5272,5.61319 5.60587,5.61146 5.72154,5.35307 "
     id="polygon42"
     style="fill:#f4e3d7;fill-opacity:1;stroke:#ffffff;stroke-width:0.0138898" /><polygon
     transform="translate(-0.13909197,0.9402621)"
     class="fil0 str0"
     points="5.22339,6.35161 5.29909,6.35524 5.29768,6.50268 5.35559,6.52673 5.29539,6.68933 5.3576,6.77807 5.19071,6.90122 5.22449,6.9674 5.3948,6.96791 5.35594,7.07118 5.43685,7.13547 5.44185,7.24083 5.54717,7.29705 5.58724,7.19921 5.71256,7.20925 5.69953,7.37142 5.77283,7.50886 5.92567,7.4413 5.95386,7.53787 5.98921,7.47075 6.13091,7.46961 6.32807,7.62878 6.43953,7.66579 6.52303,7.65331 6.56488,7.55906 6.62508,7.56217 6.59425,7.45138 6.50457,7.46677 6.32035,7.30961 6.36028,7.21492 6.39913,7.16543 6.35917,7.03819 6.37197,6.96547 6.56799,7.05496 6.6687,7.0165 6.6687,7.0165 6.72504,6.90012 6.69559,6.79642 6.65055,6.70906 6.57642,6.73917 6.47866,6.65142 6.47866,6.65142 6.36957,6.69669 6.27417,6.60402 6.1789,6.60539 6.15236,6.51323 6.07445,6.40433 6.06728,6.54039 5.93921,6.58055 5.87335,6.40642 5.70807,6.40937 5.66618,6.34839 5.55528,6.17772 5.56461,5.95807 5.49472,5.83094 5.30996,5.87236 5.18421,5.9739 5.23039,6.08839 5.15087,6.17008 "
     id="polygon44"
     style="fill:#784421;fill-opacity:1;stroke:#ffffff;stroke-width:0.0138898" /><polygon
     transform="translate(-0.13909197,0.9402621)"
     class="fil2 str0"
     points="5.22339,6.35161 5.29909,6.35524 5.29768,6.50268 5.35559,6.52673 5.29539,6.68933 5.3576,6.77807 5.19071,6.90122 5.13217,6.90441 5.06319,6.86717 5.01173,6.89067 4.96252,6.85 4.79961,6.92602 4.71185,6.9528 4.69315,7.0313 4.62535,7.08748 4.6039,7.16996 4.50094,7.2528 4.4313,7.19791 4.36291,7.2315 4.32272,7.18528 4.2965,7.25555 4.24602,7.30547 4.26091,7.41394 4.17638,7.48913 4.0489,7.43319 4.04524,7.37673 4.12287,7.32406 3.99929,7.1728 4.04539,7.04791 4.03528,6.89252 3.94807,6.84453 3.93319,6.76268 3.93319,6.76268 3.96598,6.71354 3.92345,6.57772 4.01717,6.56693 4.12469,6.59327 4.20606,6.57579 4.17713,6.35492 4.24299,6.34268 4.1363,6.2135 4.17063,6.14846 4.2026,6.06236 4.25122,6.02736 4.57945,6.07961 4.58673,6.00571 4.64681,6.00795 4.74425,5.93394 4.79992,5.79087 4.83272,5.93693 4.95689,5.87886 4.98638,5.97063 5.04933,6.0411 5.18421,5.9739 5.23039,6.08839 5.15087,6.17008 "
     id="polygon46"
     style="fill:#c87137;fill-opacity:1;stroke:#ffffff;stroke-width:0.0138898" /><polygon
     transform="translate(-0.13909197,0.9402621)"
     class="fil0 str0"
     points="5.44185,7.24083 5.43685,7.13547 5.35594,7.07118 5.3948,6.96791 5.22449,6.9674 5.19071,6.90122 5.13217,6.90441 5.06319,6.86717 5.01173,6.89067 4.96252,6.85 4.79961,6.92602 4.71185,6.9528 4.69315,7.0313 4.62535,7.08748 4.6039,7.16996 4.50094,7.2528 4.4313,7.19791 4.36291,7.2315 4.32272,7.18528 4.2965,7.25555 4.24602,7.30547 4.26091,7.41394 4.17638,7.48913 4.26319,7.55567 4.32587,7.51449 4.42394,7.59449 4.4789,7.57587 4.46382,7.51217 4.54039,7.56602 4.61138,7.6252 4.57098,7.67598 4.57098,7.67598 4.63953,7.8411 4.6837,7.78189 4.7774,7.85272 4.74717,7.93008 4.79283,8.05035 4.84555,8.12035 4.92673,8.0928 4.9935,8.1626 5.13496,8.17921 5.13122,8.0472 5.16457,7.96114 5.1276,7.88339 5.22339,7.8652 5.2698,7.78098 5.36118,7.78587 5.42969,7.7074 5.51815,7.69528 5.73642,7.5626 5.77283,7.50886 5.69953,7.37142 5.71256,7.20925 5.58724,7.19921 5.54717,7.29705 "
     id="polygon48"
     style="fill:#f4e3d7;fill-opacity:1;stroke:#ffffff;stroke-width:0.0138898" /><polygon
     transform="translate(-0.13909197,0.9402621)"
     class="fil0 str0"
     points="6.57106,7.86362 6.77764,7.8978 6.81283,7.95705 6.76362,8.00311 6.85583,8.09449 7.06406,8.15185 7.10657,8.10787 7.13567,8.15898 7.18063,8.10878 7.2511,8.06409 7.27846,8.12138 7.35799,8.13461 7.45051,8.09858 7.50587,8.01067 7.53567,7.87783 7.60709,7.84201 7.65685,7.76331 7.71969,7.71815 7.76087,7.6315 7.76224,7.57248 7.82941,7.56988 7.87709,7.51961 7.89358,7.4363 7.87197,7.38709 7.91299,7.34386 7.80079,7.3313 7.69835,7.24764 7.60177,7.08921 7.60177,7.08921 7.55807,6.98398 7.47469,6.94512 7.44087,6.8935 7.35957,6.86366 7.2822,6.85311 7.14606,6.98409 7.07484,7.01949 6.98244,6.92276 6.88496,6.98047 6.72504,6.90012 6.56799,7.05496 6.37197,6.96547 6.35917,7.03819 6.39913,7.16543 6.36028,7.21492 6.32035,7.30961 6.50457,7.46677 6.62508,7.56217 6.56488,7.55906 6.52303,7.65331 6.58366,7.69244 6.495,7.7378 6.46122,7.78394 "
     id="polygon50"
     style="fill:#f4e3d7;fill-opacity:1;stroke:#ffffff;stroke-width:0.0138898" /><polygon
     transform="translate(-0.13909197,0.9402621)"
     class="fil3 str0"
     points="6.32807,7.62878 6.43953,7.66579 6.52303,7.65331 6.58366,7.69244 6.495,7.7378 6.46122,7.78394 6.57106,7.86362 6.77764,7.8978 6.81283,7.95705 6.76362,8.00311 6.85583,8.09449 7.06406,8.15185 7.00965,8.20992 6.91634,8.26614 6.79795,8.29756 6.75622,8.36512 6.65083,8.40717 6.62327,8.46626 6.50654,8.35882 6.43949,8.31173 6.36724,8.36764 6.34681,8.26555 6.27409,8.25319 6.18894,8.32024 6.12299,8.26421 6.05807,8.3685 5.93642,8.35059 5.83106,8.38189 5.77094,8.42106 5.70858,8.58614 5.56083,8.60413 5.50476,8.65791 5.48898,8.59465 5.39756,8.58933 5.39756,8.58933 5.39465,8.52992 5.3215,8.50642 5.18559,8.49563 5.10941,8.45051 5.02244,8.46878 5.03945,8.41118 5.06961,8.32748 5.07004,8.24425 5.13496,8.17921 5.13122,8.0472 5.16457,7.96114 5.1276,7.88339 5.22339,7.8652 5.2698,7.78098 5.36118,7.78587 5.42969,7.7074 5.51815,7.69528 5.73642,7.5626 5.77283,7.50886 5.92567,7.4413 5.95386,7.53787 5.98921,7.47075 6.13091,7.46961 "
     id="polygon52"
     style="fill:#d38d5f;fill-opacity:1;stroke:#ffffff;stroke-width:0.0138898" /><polygon
     transform="translate(-0.13909197,0.9402621)"
     class="fil1 str0"
     points="6.63756,9.35531 6.69374,9.44106 6.75457,9.50146 6.93197,9.48504 6.96591,9.39929 6.98543,9.29343 7.0639,9.31157 7.09902,9.16193 7.14299,9.12059 7.07858,9.0187 7.01496,8.98614 6.98677,8.91831 6.91488,8.87547 6.96264,8.76343 6.95283,8.59961 7.02319,8.47843 6.94331,8.37831 6.91634,8.26614 6.79795,8.29756 6.75622,8.36512 6.65083,8.40717 6.62327,8.46626 6.50654,8.35882 6.43949,8.31173 6.36724,8.36764 6.34681,8.26555 6.27409,8.25319 6.18894,8.32024 6.12299,8.26421 6.05807,8.3685 5.93642,8.35059 5.83106,8.38189 5.77094,8.42106 5.70858,8.58614 5.76492,8.73673 5.66803,8.76508 5.60634,8.95181 5.55063,9.03831 5.55063,9.03831 5.48476,9.13402 5.44594,9.25748 5.50035,9.32189 5.43217,9.36496 5.36417,9.37835 5.28957,9.43654 5.29744,9.50752 5.35433,9.54752 5.40512,9.65252 5.58031,9.7276 5.65638,9.6337 5.71291,9.6678 5.73197,9.59256 5.80984,9.55748 5.84827,9.49697 5.91846,9.53661 5.98874,9.54898 6.04535,9.45972 6.11634,9.51047 6.18484,9.54425 6.27843,9.5526 6.47626,9.46067 6.56882,9.43244 "
     id="polygon54"
     style="fill:#e9c6af;fill-opacity:1;stroke:#ffffff;stroke-width:0.0138898" /><path
     sodipodi:nodetypes="cccccccccccccccccccccccccccccccccccccccc"
     id="path3242"
     d="M 3.7522634,9.792865 3.6449987,9.6278423 3.517106,9.5412054 3.5294828,9.3431781 3.5707385,9.190532 3.4758504,9.0832672 l -0.1237671,0 -0.1031393,-0.1320182 0.053632,-0.07426 0.070135,0 0.049507,-0.1196416 0.1691484,-0.057758 -0.028879,-0.082511 0.066009,-0.028879 0,-0.061884 -0.1278926,-0.1402693 -0.016502,-0.1072648 0.144395,0.00825 0.07426,-0.099014 0.094888,-0.00413 0.057758,-0.070135 0.1320182,0.1485205 -0.082511,0.053632 0.00413,0.053632 0.1237671,0.053633 0.078386,0.061884 0.041256,0.061884 0.057758,0.053632 0.045381,0.115516 0.1072648,0.1485204 -0.049507,0.1608972 0.028879,0.1567717 0.07426,0.061884 -0.094888,0.1361438 -0.012377,0.1031392 -0.1443949,0.1031392 -0.1485205,-0.041256 -0.086637,-0.00413 -0.053632,0.090762 -0.1237671,0.1608972 z"
     style="fill:#784421;fill-opacity:1;stroke:#ffffff;stroke-width:0.01111111;stroke-linecap:butt;stroke-linejoin:miter;stroke-miterlimit:4;stroke-opacity:1;stroke-dasharray:none" /><path
     sodipodi:nodetypes="cccccccccccccccccccccccccccccccccccc"
     id="path4029"
     d="m 5.2622217,10.597351 -0.1113903,0.07013 -0.07426,-0.107264 -0.078386,0.02888 0.00413,0.103139 -0.082511,-0.05363 -0.049507,0.04538 -0.210404,-0.127893 -0.00825,-0.193902 0.090763,-0.04125 -0.053632,-0.222781 0.028879,-0.2104039 0.1856505,-0.1980273 0.1237671,0.028879 0,-0.086637 -0.086637,-0.1031391 0.1608971,-0.090763 0.078386,0.00413 0.070135,0.024753 0.00413,0.061884 0.099014,0.00413 0.00413,0.061883 0.066009,-0.057758 0.1485205,-0.016502 0.057758,0.1526461 -0.094888,0.033005 -0.066009,0.1897761 -0.1320182,0.1856501 -0.033005,0.107265 0.061884,0.07014 -0.082511,0.05363 -0.07426,0.01238 -0.066009,0.07014 0.016502,0.05363 0.061884,0.04126 0.041256,0.107265 z"
     style="fill:#502d16;fill-opacity:1;stroke:#ffffff;stroke-width:0.01111111px;stroke-linecap:butt;stroke-linejoin:miter;stroke-opacity:1" /><path
     sodipodi:nodetypes="ccccccccccccccccccccccccccccccccccccccccccccccccccccccc"
     id="path4044"
     d="m 3.7440123,9.7887395 0.099014,-0.00413 0,0.2062789 0.268162,0.1608966 0.00825,0.193902 0.057758,0.156772 0.144395,-0.02063 0.1526459,0.115516 -0.078386,0.140269 0.1980273,0.21453 0.00825,0.07426 0.1443949,-0.06601 0.1237671,-0.280539 -0.2145296,-0.127893 -0.00413,-0.193901 0.090762,-0.04126 -0.057758,-0.235158 0.033005,-0.2062779 0.1856505,-0.1897762 0.1320182,0.041256 0,-0.099014 -0.099014,-0.1031392 0.1320182,-0.07426 -0.094888,-0.066009 -0.094888,0.024753 0.057758,-0.1485206 -0.00413,-0.078386 0.066009,-0.066009 -0.1320182,-0.012377 -0.082511,-0.078386 -0.07426,0.033005 -0.057758,-0.082511 -0.041256,-0.1031392 0.028879,-0.078386 -0.094888,-0.07426 -0.045381,0.053633 -0.070135,-0.1608972 0.045381,-0.049507 -0.1526459,-0.1196415 0.012377,0.066009 -0.053632,0.024753 -0.099014,-0.078386 -0.061883,0.03713 0.086637,0.1072648 0.053632,0.1320182 0.1031392,0.1278927 -0.053632,0.1691483 0.03713,0.144395 0.07426,0.07426 -0.1031392,0.1361437 -0.00825,0.094888 -0.1443949,0.1113904 -0.1650228,-0.053632 -0.078386,0 -0.1773996,0.2516597 z"
     style="fill:#28170b;fill-opacity:1;stroke:#ffffff;stroke-width:0.01111111px;stroke-linecap:butt;stroke-linejoin:miter;stroke-opacity:1" /><path
     id="path4059"
     d="M 4.3917267,10.733495 3.7646402,11.1378 3.7522632,11.570985 3.5171058,11.641125 3.4263438,11.4596 3.5377341,11.36471 3.2736975,10.638606 l 0.2351574,-0.181525 -0.1526461,-0.07426 -0.045381,-0.272287 0.033005,-0.09901 0.2722876,-0.06601 0.1113904,0.1113896 0.1196414,-0.07426 0.268162,0.1691476 0,0.181525 0.061884,0.169149 0.1402694,-0.03301 0.1650226,0.127893 -0.090762,0.136144 z"
     style="fill:#502d16;fill-opacity:1;stroke:#ffffff;stroke-width:0.01111111px;stroke-linecap:butt;stroke-linejoin:miter;stroke-opacity:1" /><path
     sodipodi:nodetypes="cccccccccccccccccccccccccccccc"
     id="path4061"
     d="M 3.2695719,10.634481 2.9972844,10.44883 2.8405128,10.46533 2.6919922,9.9991404 l -0.1443949,-0.04538 -0.00825,-0.1650229 0.061884,-0.152646 -0.1650228,-0.144395 0.07426,-0.1691483 0.3011666,0.094888 0.078386,-0.086637 -0.012377,-0.066009 0.1402693,-0.1072648 0.1608972,0.045381 0.1650227,-0.1278925 0.1361438,0.00413 0.090763,0.1113903 -0.041256,0.1567716 -0.012377,0.1856506 0.1361438,0.1072648 0.086637,0.1443949 0.1072647,-0.00413 0,0.2021533 -0.1113903,0.07426 -0.1196415,-0.1113906 -0.2764131,0.06601 -0.028879,0.09076 0.041256,0.280539 0.1608972,0.07426 -0.2434086,0.1774 z"
     style="fill:#502d16;fill-opacity:1;stroke:#ffffff;stroke-width:0.01111111px;stroke-linecap:butt;stroke-linejoin:miter;stroke-opacity:1" /><path
     style="fill:none;stroke:#ffffff;stroke-width:0.04444445;stroke-linecap:butt;stroke-linejoin:miter;stroke-miterlimit:4;stroke-opacity:1;stroke-dasharray:none"
     d="m 5.273105,10.616595 -0.049533,-0.123833 -0.061917,-0.04953 -0.012383,-0.04953 0.055725,-0.06192 0.080491,-0.03096 0.080491,-0.04334 -0.055725,-0.06811 0.030958,-0.123834 0.1300248,-0.1733654 0.068108,-0.1857496 0.099066,-0.030958 -0.0743,-0.1547914 -0.1362163,0.018575 -0.068108,0.055725 -0.00619,-0.061917 -0.092875,-0.00619 -0.00619,-0.061917 -0.099066,-0.030958 -0.080491,0.012383 -0.099067,-0.055725 -0.092875,0.012383 0.049533,-0.1238331 0,-0.099066 0.068108,-0.068108 -0.1300247,-0.00619 -0.086683,-0.080492 -0.061916,0.030958 -0.018575,0 -0.049533,-0.080491 -0.043342,-0.099067 0.030958,-0.080491 -0.099066,-0.0743 -0.043342,0.043342 -0.068108,-0.1547914 0.043342,-0.049533 -0.1485997,-0.1114497 0,0.061917 -0.03715,0.024767 -0.099067,-0.086683 -0.061916,0.043342 -0.086683,-0.068108 -0.1238331,-0.061917 -0.012383,-0.043342 0.080491,-0.049533 -0.1238331,-0.160983 -0.068108,0.068108 -0.086683,0.00619 -0.080492,0.099066 -0.1485996,0 0.024767,0.1114498 0.1176413,0.1362163 0.00619,0.061917 -0.061916,0.024767 0.024767,0.092875 -0.1733663,0.049533 -0.03715,0.1114497 -0.080491,0.00619 -0.049533,0.0743 0.092875,0.123833 -0.160983,0.1238331 -0.1919412,-0.043342"
     id="path2849" /><path
     style="fill:none;stroke:#ffffff;stroke-width:0.04444445;stroke-linecap:butt;stroke-linejoin:miter;stroke-miterlimit:4;stroke-opacity:1;stroke-dasharray:none"
     d="m 1.2743107,4.1208028 0.1557741,-0.059087 0.042972,-0.048344 0.112802,0.1235449 0.016115,-0.06983 0.026858,0 0.075201,0.048344 0.1772601,-0.042972 0.123545,0.021486 0.026857,0.037601 -0.080573,0.1128019 -0.048344,0.1128018 0.021486,0.080573 0.091316,0.075201 0.091316,0 0.1128019,0.123545 0.059087,0.010743 0.134288,-0.00537 0.016115,0.021486 -0.1504025,0.096687 0.010743,0.042972 0.1020588,-0.016114 0.112802,-0.1074305 0.1020588,-0.053715 0.06983,-0.1396594 -0.091316,-0.075201 0.1020589,-0.053715 0.010743,-0.1074303 0.085944,-0.123545 0.1611456,-0.085944 -0.00537,-0.096687 0.1396594,-0.080573 -0.059087,-0.1557741 0.091316,-0.042972 0.042972,0.032229 0.021486,0.096687 0.1933746,0.2202323 0.1396596,0.085944 0.00537,0.145031 -0.053715,-0.00537 -0.00537,0.059087 0.080573,0.085944 0,0.1235449 0.06983,0.042972 0.1289164,0.155774 0.123545,0.042972 0.1772601,-0.048344 0.123545,-0.123545 0.1504025,0.00537 0.06983,-0.075201 0.06983,0.053715 0.032229,-0.075201 0.064458,-0.059087 0.1450311,-0.021486 0.1235449,-0.085944"
     id="path3623" /><g
     transform="matrix(0.01111111,0,0,0.01111111,5.4230455,0.54935226)"
     id="g3269"><rect
       y="32.946152"
       x="43.048237"
       height="31.929449"
       width="47.794033"
       id="rect6484"
       style="fill:#f4e3d7;fill-opacity:1;stroke:none" /><rect
       y="64.87561"
       x="43.048237"
       height="31.929449"
       width="47.794033"
       id="rect8854"
       style="fill:#e9c6af;fill-opacity:1;stroke:none" /><rect
       y="96.805038"
       x="43.048237"
       height="31.929449"
       width="47.794033"
       id="rect8856"
       style="fill:#deaa87;fill-opacity:1;stroke:none" /><rect
       y="128.7345"
       x="43.048237"
       height="31.929449"
       width="47.794033"
       id="rect8858"
       style="fill:#d38d5f;fill-opacity:1;stroke:none" /><rect
       y="160.66397"
       x="43.048237"
       height="31.929449"
       width="47.794033"
       id="rect8860"
       style="fill:#c87137;fill-opacity:1;stroke:none" /><rect
       y="192.59338"
       x="43.048237"
       height="31.929449"
       width="47.794033"
       id="rect8862"
       style="fill:#a05a2c;fill-opacity:1;stroke:none" /><rect
       y="224.52284"
       x="43.048237"
       height="31.929449"
       width="47.794033"
       id="rect8864"
       style="fill:#784421;fill-opacity:1;stroke:none" /><rect
       y="256.4523"
       x="43.048237"
       height="31.929449"
       width="47.794033"
       id="rect8866"
       style="fill:#502d16;fill-opacity:1;stroke:none" /><rect
       y="288.38177"
       x="43.048237"
       height="31.929449"
       width="47.794033"
       id="rect8868"
       style="fill:#28170b;fill-opacity:1;stroke:none" /><text
       sodipodi:linespacing="125%"
       id="text11296"
       y="57.318546"
       x="99.073647"
       style="font-size:25.51684189px;font-style:normal;font-variant:normal;font-weight:normal;font-stretch:normal;text-align:start;line-height:125%;writing-mode:lr-tb;text-anchor:start;fill:#000000;fill-opacity:1;stroke:none;font-family:Bitstream Vera Sans"
       xml:space="preserve"
       transform="scale(0.99895398,1.0010471)"><tspan
         y="57.318546"
         x="99.073647"
         id="tspan11318"
         sodipodi:role="line">0 - 50</tspan><tspan
         y="89.2146"
         x="99.073647"
         id="tspan11320"
         sodipodi:role="line">50 - 70</tspan><tspan
         y="121.11065"
         x="99.073647"
         id="tspan11322"
         sodipodi:role="line">70 - 80</tspan><tspan
         y="153.0067"
         x="99.073647"
         id="tspan11324"
         sodipodi:role="line">80 - 90</tspan><tspan
         y="184.90276"
         x="99.073647"
         id="tspan11326"
         sodipodi:role="line">90 - 100</tspan><tspan
         y="216.79881"
         x="99.073647"
         id="tspan11328"
         sodipodi:role="line">100 - 130</tspan><tspan
         y="248.69485"
         x="99.073647"
         id="tspan11330"
         sodipodi:role="line">130 - 150</tspan><tspan
         y="280.59091"
         x="99.073647"
         id="tspan11332"
         sodipodi:role="line">150 - 200</tspan><tspan
         y="312.48697"
         x="99.073647"
         id="tspan11334"
         sodipodi:role="line">200+</tspan></text>
<rect
       y="21.744267"
       x="31.357809"
       height="307.84546"
       width="186.8192"
       id="rect11336"
       style="fill:none;stroke:#000000;stroke-width:1.01409709;stroke-opacity:1" /></g></g></svg>